<svg width="16" height="17" viewBox="0 0 16 17" fill="none" xmlns="http://www.w3.org/2000/svg">
<path d="M16 15.9619L11.5291 11.4674C12.598 10.1777 13.1289 8.52595 13.0118 6.85508C12.8946 5.18422 12.1383 3.6227 10.8999 2.49486C9.66159 1.36703 8.03638 0.759567 6.36187 0.79865C4.68735 0.837734 3.09225 1.52036 1.90787 2.70474C0.723485 3.88912 0.0408594 5.48423 0.00177548 7.15874C-0.0373085 8.83325 0.570154 10.4585 1.69799 11.6968C2.82582 12.9352 4.38734 13.6915 6.05821 13.8086C7.72907 13.9258 9.38086 13.3948 10.6705 12.326L15.165 16.7969L16 15.9619ZM1.19578 7.32217C1.19578 6.26809 1.50835 5.23768 2.09396 4.36125C2.67958 3.48481 3.51194 2.80172 4.48578 2.39834C5.45962 1.99496 6.53121 1.88942 7.56503 2.09506C8.59886 2.3007 9.54849 2.80828 10.2938 3.55363C11.0392 4.29898 11.5468 5.24861 11.7524 6.28243C11.9581 7.31626 11.8525 8.38785 11.4491 9.36169C11.0458 10.3355 10.3627 11.1679 9.48622 11.7535C8.60979 12.3391 7.57938 12.6517 6.5253 12.6517C5.11182 12.6517 3.75624 12.0902 2.75676 11.0907C1.75728 10.0912 1.19578 8.73565 1.19578 7.32217Z" fill="#BCBCBC"/>
</svg>
