<svg width="38" height="19" viewBox="0 0 38 19" fill="none" xmlns="http://www.w3.org/2000/svg">
<path d="M17.1499 7.98286C18.3606 8.44362 20.055 7.37055 20.9275 5.59044C21.7999 3.81046 21.525 1.98741 20.3143 1.52666C19.104 1.06603 17.4093 2.13945 16.5369 3.91947C15.6644 5.69958 15.9396 7.52223 17.1499 7.98286Z" fill="white"/>
<path d="M21.6958 13.1682C21.6842 13.0774 21.6726 12.9916 21.6764 12.9236C21.7529 11.4865 21.0906 9.47084 18.9677 8.52099L18.8857 8.48529C16.7793 7.58558 14.8455 8.40058 13.7377 9.46378C13.6996 9.50007 13.6339 9.54019 13.5643 9.58258C13.4822 9.63204 13.4 9.68337 13.3221 9.74405C12.5061 10.3778 11.8602 11.2078 11.504 12.0813C11.1254 13.0085 11.113 13.8778 11.4678 14.5283C11.6112 14.7909 11.81 14.9772 12.0589 15.0836C12.5722 15.3028 13.1988 15.1583 13.9247 14.991C14.3865 14.8841 14.8634 14.7739 15.3499 14.7468C15.4024 14.7483 15.597 14.7994 15.8954 14.9269C16.2502 15.0784 16.4879 15.225 16.5322 15.2707C16.8273 15.6408 17.0463 16.0545 17.2584 16.4541C17.5832 17.0673 17.89 17.6461 18.4074 17.8671C18.6294 17.9619 18.8764 17.9839 19.1419 17.9328C20.6065 17.6513 21.7652 15.6573 21.7248 13.4883C21.7228 13.3794 21.7098 13.2731 21.6958 13.1682Z" fill="white"/>
<path d="M21.5985 10.6557C22.8086 11.1162 24.5032 10.0432 25.3757 8.26311C26.2482 6.48312 25.973 4.66 24.7629 4.19946C23.5521 3.73866 21.8576 4.81212 20.9851 6.59214C20.1126 8.37225 20.3877 10.1949 21.5985 10.6557Z" fill="white"/>
<path d="M25.7152 10.5249C24.7451 10.1547 23.4465 10.9672 22.7579 12.3743C22.0697 13.7808 22.29 15.1731 23.2596 15.5431C24.2292 15.9131 25.5288 15.1008 26.217 13.6943C26.9056 12.2873 26.6852 10.8951 25.7152 10.5249Z" fill="white"/>
<path d="M15.0744 6.99939C15.7629 5.59231 15.5425 4.20015 14.5728 3.83011C13.6031 3.46006 12.3039 4.27236 11.6154 5.67943C10.9271 7.08591 11.1475 8.47821 12.1173 8.84826C13.087 9.21832 14.3861 8.40587 15.0744 6.99939Z" fill="white"/>
</svg>
