<svg viewBox="0 0 14 8" fill="none" xmlns="http://www.w3.org/2000/svg">
<path d="M13.8396 3.61295C13.8394 3.61279 13.8393 3.61259 13.8391 3.61243L10.9816 0.768684C10.7675 0.555649 10.4213 0.556442 10.2082 0.770543C9.9951 0.984617 9.99592 1.33087 10.21 1.54393L12.1285 3.45318H0.546875C0.244836 3.45318 0 3.69802 0 4.00005C0 4.30209 0.244836 4.54693 0.546875 4.54693H12.1285L10.21 6.45618C9.99594 6.66924 9.99512 7.01549 10.2082 7.22957C10.4213 7.44369 10.7676 7.44443 10.9816 7.23142L13.8391 4.38768C13.8393 4.38751 13.8394 4.38732 13.8396 4.38716C14.0538 4.17339 14.0531 3.82601 13.8396 3.61295Z" fill="white"/>
</svg>
